# Wavefront OBJ exported by MilkShape 3D

mtllib longBox.mtl

v -0.151425 -0.000327 0.150947
v -0.151425 0.496799 0.150947
v -0.151425 1.002190 0.150947
v -0.151425 -0.000327 -0.153840
v -0.151425 0.496799 -0.153840
v -0.151425 1.002190 -0.153840
v 0.153362 -0.000327 -0.153840
v 0.153362 0.496799 -0.153840
v 0.153362 1.002190 -0.153840
v 0.153362 -0.000327 0.150947
v 0.153362 0.496799 0.150947
v 0.153362 1.002190 0.150947
v 0.000969 1.002190 -0.001447
v 0.000969 -0.000327 -0.001447
# 14 vertices

vt 0.075645 0.117251
vt 0.498678 0.117251
vt 0.075645 0.966249
vt 0.498678 0.966249
vt 0.075645 0.538251
vt 0.921712 0.117251
vt 0.921712 0.966249
vt 0.921712 0.538251
# 8 texture coordinates

vn 0.000000 -1.000000 0.000000
vn 0.000000 1.000000 0.000000
vn -0.707107 0.000000 0.707107
vn -0.707107 0.000000 -0.707107
vn 0.707107 0.000000 -0.707107
vn 0.707107 0.000000 0.707107
# 6 normals

# g Cylinder05
usemtl imageMat
s 2
f 1/1/1 4/1/1 14/2/1
f 3/3/2 13/4/2 6/3/2
s 1
f 1/1/3 2/5/3 5/5/4
f 1/1/3 5/5/4 4/1/4
f 2/5/3 3/3/3 5/5/4
f 3/3/3 6/3/4 5/5/4
s 2
f 4/1/1 7/6/1 14/2/1
f 6/3/2 13/4/2 9/7/2
s 1
f 4/1/4 5/5/4 7/6/5
f 5/5/4 8/8/5 7/6/5
f 5/5/4 6/3/4 9/7/5
f 5/5/4 9/7/5 8/8/5
s 2
f 7/6/1 10/6/1 14/2/1
f 9/7/2 13/4/2 12/7/2
s 1
f 7/6/5 8/8/5 11/8/6
f 7/6/5 11/8/6 10/6/6
f 8/8/5 9/7/5 11/8/6
f 9/7/5 12/7/6 11/8/6
s 2
f 10/6/1 1/1/1 14/2/1
f 12/7/2 13/4/2 3/3/2
s 1
f 10/6/6 11/8/6 1/1/3
f 11/8/6 2/5/3 1/1/3
f 11/8/6 12/7/6 3/3/3
f 11/8/6 3/3/3 2/5/3
# 24 triangles in group

# 24 triangles total

